<?xml version="1.0" encoding="UTF-8" standalone="no"?>
<svg width="48px" height="48px" viewBox="0 0 48 48" version="1.1" xmlns="http://www.w3.org/2000/svg" xmlns:xlink="http://www.w3.org/1999/xlink">
    <!-- Generator: Sketch 39 (31667) - http://www.bohemiancoding.com/sketch -->
    <title>Shape</title>
    <desc>Created with Sketch.</desc>
    <defs></defs>
    <g id="splash" stroke="none" stroke-width="1" fill="none" fill-rule="evenodd">
        <g transform="translate(-696.000000, -599.000000)" id="Shape" fill="#FFFFFF">
            <path d="M730.71,613.71 L721.41,623 L730.7,632.29 C730.985376,632.53439 731.109682,632.918118 731.02181,633.283419 C730.933938,633.64872 730.64872,633.933938 730.283419,634.02181 C729.918118,634.109682 729.53439,633.985376 729.29,633.7 L720,624.41 L710.71,633.7 C710.31324,634.039777 709.721806,634.016932 709.352437,633.647563 C708.983068,633.278194 708.960223,632.68676 709.3,632.29 L718.59,623 L709.3,613.71 C708.960223,613.31324 708.983068,612.721806 709.352437,612.352437 C709.721806,611.983068 710.31324,611.960223 710.71,612.3 L720,621.59 L729.29,612.3 C729.679361,611.907878 730.312878,611.905639 730.705,612.295 C731.097122,612.684361 731.099361,613.317878 730.71,613.71 L730.71,613.71 Z M744,623 C744,636.254834 733.254834,647 720,647 C706.745166,647 696,636.254834 696,623 C696,609.745166 706.745166,599 720,599 C726.365196,599 732.46969,601.528564 736.970563,606.029437 C741.471436,610.53031 744,616.634804 744,623 L744,623 Z M742,623 C742,610.849736 732.150264,601 720,601 C707.849736,601 698,610.849736 698,623 C698,635.150264 707.849736,645 720,645 C725.834763,645 731.430549,642.68215 735.556349,638.556349 C739.68215,634.430549 742,628.834763 742,623 L742,623 Z"></path>
        </g>
    </g>
</svg>